<svg width="109" height="105" viewBox="0 0 109 105" fill="none" xmlns="http://www.w3.org/2000/svg">
<path d="M60 104.375C60 93.7008 57.1524 83.2199 51.751 74.0133C46.3496 64.8066 38.5899 57.2076 29.2723 52L0 104.375H60Z" fill="white"/>
<path d="M49 -1.43067e-06C49 10.6741 51.8476 21.155 57.249 30.3617C62.6504 39.5683 70.4101 47.1673 79.7277 52.3749L109 3.8147e-06L49 -1.43067e-06Z" fill="white"/>
<path d="M49 104.375C49 93.7008 51.8476 83.2199 57.249 74.0133C62.6504 64.8066 70.4101 57.2076 79.7277 52L109 104.375H49Z" fill="white"/>
<path d="M60 9.06006e-06C60 10.6741 57.1524 21.155 51.751 30.3617C46.3496 39.5683 38.5899 47.1673 29.2723 52.3749L4.57876e-06 3.8147e-06L60 9.06006e-06Z" fill="white"/>
</svg>
