<svg width="324" height="105" viewBox="0 0 324 105" fill="none" xmlns="http://www.w3.org/2000/svg">
<path d="M60 104.375C60 93.7008 57.1524 83.2199 51.751 74.0133C46.3496 64.8066 38.5899 57.2076 29.2723 52L0 104.375H60Z" fill="black"/>
<path d="M49 -1.43067e-06C49 10.6741 51.8476 21.155 57.249 30.3617C62.6504 39.5683 70.4101 47.1673 79.7277 52.3749L109 3.8147e-06L49 -1.43067e-06Z" fill="black"/>
<path d="M49 104.375C49 93.7008 51.8476 83.2199 57.249 74.0132C62.6504 64.8066 70.4101 57.2076 79.7277 52L109 104.375H49Z" fill="black"/>
<path d="M60 9.06006e-06C60 10.6741 57.1524 21.155 51.751 30.3617C46.3496 39.5683 38.5899 47.1673 29.2723 52.3749L4.57876e-06 3.8147e-06L60 9.06006e-06Z" fill="black"/>
<path d="M154.33 46.7386H145.807C145.693 45.8636 145.46 45.0739 145.108 44.3693C144.756 43.6648 144.29 43.0625 143.71 42.5625C143.131 42.0625 142.443 41.6818 141.648 41.4205C140.864 41.1477 139.994 41.0114 139.04 41.0114C137.347 41.0114 135.886 41.4261 134.659 42.2557C133.443 43.0852 132.506 44.2841 131.847 45.8523C131.199 47.4205 130.875 49.3182 130.875 51.5455C130.875 53.8636 131.205 55.8068 131.864 57.375C132.534 58.9318 133.472 60.108 134.676 60.9034C135.892 61.6875 137.33 62.0795 138.989 62.0795C139.92 62.0795 140.767 61.9602 141.528 61.7216C142.301 61.483 142.977 61.1364 143.557 60.6818C144.148 60.2159 144.631 59.6534 145.006 58.9943C145.392 58.3239 145.659 57.5682 145.807 56.7273L154.33 56.7784C154.182 58.3239 153.733 59.8466 152.983 61.3466C152.244 62.8466 151.227 64.2159 149.932 65.4545C148.636 66.6818 147.057 67.6591 145.193 68.3864C143.341 69.1136 141.216 69.4773 138.818 69.4773C135.659 69.4773 132.83 68.7841 130.33 67.3977C127.841 66 125.875 63.9659 124.432 61.2955C122.989 58.625 122.267 55.375 122.267 51.5455C122.267 47.7045 123 44.4489 124.466 41.7784C125.932 39.108 127.915 37.0795 130.415 35.6932C132.915 34.3068 135.716 33.6136 138.818 33.6136C140.932 33.6136 142.886 33.9091 144.682 34.5C146.477 35.0795 148.057 35.9318 149.42 37.0568C150.784 38.1705 151.892 39.5398 152.744 41.1648C153.597 42.7898 154.125 44.6477 154.33 46.7386ZM165.093 54.0682V69H156.758V34.0909H164.82V47.625H165.11C165.701 46.0114 166.667 44.75 168.008 43.8409C169.36 42.9318 171.013 42.4773 172.968 42.4773C174.809 42.4773 176.411 42.8864 177.775 43.7045C179.138 44.5114 180.195 45.6534 180.945 47.1307C181.707 48.608 182.082 50.3352 182.07 52.3125V69H173.735V53.9489C173.746 52.4943 173.383 51.358 172.644 50.5398C171.905 49.7216 170.866 49.3125 169.525 49.3125C168.65 49.3125 167.877 49.5057 167.207 49.892C166.547 50.267 166.03 50.8068 165.655 51.5114C165.292 52.2159 165.104 53.0682 165.093 54.0682ZM192.254 69.4432C190.584 69.4432 189.101 69.1648 187.805 68.608C186.521 68.0398 185.504 67.1875 184.754 66.0511C184.015 64.9034 183.646 63.4659 183.646 61.7386C183.646 60.2841 183.902 59.0568 184.413 58.0568C184.924 57.0568 185.629 56.2443 186.527 55.6193C187.424 54.9943 188.459 54.5227 189.629 54.2045C190.799 53.875 192.049 53.6534 193.379 53.5398C194.868 53.4034 196.066 53.2614 196.976 53.1136C197.885 52.9545 198.544 52.733 198.953 52.4489C199.373 52.1534 199.584 51.7386 199.584 51.2045V51.1193C199.584 50.2443 199.282 49.5682 198.68 49.0909C198.078 48.6136 197.265 48.375 196.243 48.375C195.14 48.375 194.254 48.6136 193.584 49.0909C192.913 49.5682 192.487 50.2273 192.305 51.0682L184.618 50.7955C184.845 49.2045 185.43 47.7841 186.373 46.5341C187.328 45.2727 188.635 44.2841 190.294 43.5682C191.964 42.8409 193.97 42.4773 196.311 42.4773C197.981 42.4773 199.521 42.6761 200.93 43.0739C202.339 43.4602 203.566 44.0284 204.612 44.7784C205.657 45.517 206.464 46.4261 207.032 47.5057C207.612 48.5852 207.902 49.8182 207.902 51.2045V69H200.061V65.3523H199.856C199.39 66.2386 198.794 66.9886 198.066 67.6023C197.351 68.2159 196.504 68.6761 195.527 68.983C194.561 69.2898 193.47 69.4432 192.254 69.4432ZM194.828 63.9886C195.726 63.9886 196.532 63.8068 197.248 63.4432C197.976 63.0795 198.555 62.5795 198.987 61.9432C199.419 61.2955 199.635 60.5455 199.635 59.6932V57.2045C199.396 57.3295 199.106 57.4432 198.765 57.5455C198.436 57.6477 198.072 57.7443 197.674 57.8352C197.277 57.9261 196.868 58.0057 196.447 58.0739C196.027 58.142 195.623 58.2045 195.237 58.2614C194.453 58.3864 193.782 58.5795 193.226 58.8409C192.68 59.1023 192.26 59.4432 191.964 59.8636C191.68 60.2727 191.538 60.7614 191.538 61.3295C191.538 62.1932 191.845 62.8523 192.459 63.3068C193.084 63.7614 193.873 63.9886 194.828 63.9886ZM225.377 42.8182V48.9545H208.86V42.8182H225.377ZM212.32 36.5455H220.655V60.767C220.655 61.2784 220.735 61.6932 220.894 62.0114C221.064 62.3182 221.309 62.5398 221.627 62.6761C221.945 62.8011 222.326 62.8636 222.769 62.8636C223.087 62.8636 223.422 62.8352 223.774 62.7784C224.138 62.7102 224.411 62.6534 224.593 62.608L225.854 68.625C225.456 68.7386 224.894 68.8807 224.166 69.0511C223.451 69.2216 222.593 69.3295 221.593 69.375C219.638 69.4659 217.962 69.2386 216.564 68.6932C215.178 68.1364 214.115 67.2727 213.377 66.1023C212.649 64.9318 212.297 63.4602 212.32 61.6875V36.5455ZM240.695 69H227.792V34.0909H240.678C244.235 34.0909 247.298 34.7898 249.866 36.1875C252.445 37.5739 254.434 39.5739 255.832 42.1875C257.23 44.7898 257.928 47.9034 257.928 51.5284C257.928 55.1648 257.23 58.2898 255.832 60.9034C254.445 63.517 252.463 65.5227 249.883 66.9205C247.303 68.3068 244.241 69 240.695 69ZM236.23 61.8068H240.372C242.326 61.8068 243.98 61.4773 245.332 60.8182C246.695 60.1477 247.724 59.0625 248.417 57.5625C249.122 56.0511 249.474 54.0398 249.474 51.5284C249.474 49.017 249.122 47.017 248.417 45.5284C247.713 44.0284 246.673 42.9489 245.298 42.2898C243.934 41.6193 242.252 41.2841 240.252 41.2841H236.23V61.8068ZM260.455 69V34.0909H268.892V48.8523H269.352L280.892 34.0909H290.83L278.455 49.6705L291.051 69H280.96L272.267 55.2784L268.892 59.5398V69H260.455ZM312.877 34.0909H321.297V56.608C321.297 59.2102 320.678 61.4773 319.439 63.4091C318.201 65.3295 316.474 66.8182 314.258 67.875C312.042 68.9205 309.468 69.4432 306.536 69.4432C303.57 69.4432 300.979 68.9205 298.763 67.875C296.547 66.8182 294.826 65.3295 293.599 63.4091C292.371 61.4773 291.758 59.2102 291.758 56.608V34.0909H300.195V55.875C300.195 57.0795 300.457 58.1534 300.979 59.0966C301.513 60.0398 302.258 60.7784 303.212 61.3125C304.167 61.8466 305.275 62.1136 306.536 62.1136C307.797 62.1136 308.9 61.8466 309.843 61.3125C310.797 60.7784 311.542 60.0398 312.076 59.0966C312.61 58.1534 312.877 57.0795 312.877 55.875V34.0909Z" fill="black"/>
</svg>
